# 3ds Max Wavefront OBJ Exporter v0.97b - (c)2007 guruware
# File Created: 10.08.2012 22:51:26

mtllib tomato_04.mtl

#
# object stake
#

v  0.52500 -0.06250 0.47500
v  0.52500 -0.06250 0.52500
v  0.47500 -0.06250 0.52500
v  0.47500 -0.06250 0.47500
v  0.52500 1.23750 0.47500
v  0.47500 1.23750 0.47500
v  0.47500 1.23750 0.52500
v  0.52500 1.23750 0.52500
# 8 vertices

vn 0.00000 -1.00000 -0.00000
vn 0.00000 1.00000 -0.00000
vn 0.00000 0.00000 1.00000
vn 1.00000 0.00000 -0.00000
vn 0.00000 0.00000 -1.00000
vn -1.00000 0.00000 -0.00000
# 6 vertex normals

vt 0.00781 0.00781 0.00000
vt 0.00000 0.00781 0.00000
vt 0.00000 0.00000 0.00000
vt 0.00781 -0.00000 0.00000
vt 0.01563 0.12500 0.00000
vt 0.01563 0.11719 0.00000
vt 0.02344 0.11719 0.00000
vt 0.02344 0.12500 0.00000
vt 0.03125 0.11719 0.00000
vt 0.02344 0.00781 0.00000
vt 0.03125 0.00781 0.00000
vt 0.00781 0.11719 0.00000
vt 0.00000 0.11719 0.00000
vt 0.01563 0.00781 0.00000
# 14 texture coords

g stake
usemtl base
f 1/1/1 2/2/1 3/3/1 4/4/1 
f 5/5/2 6/6/2 7/7/2 8/8/2 
f 8/9/3 7/7/3 3/10/3 2/11/3 
f 5/12/4 8/13/4 2/2/4 1/1/4 
f 6/6/5 5/12/5 1/1/5 4/14/5 
f 7/7/6 6/6/6 4/14/6 3/10/6 
# 6 polygons

#
# object vine
#

v  0.59626 0.19841 0.46070
v  0.62916 0.20994 0.47046
v  0.65437 -0.06375 0.48863
v  0.62075 -0.06753 0.47836
v  0.61854 0.21305 0.50409
v  0.64391 -0.06247 0.52238
v  0.58563 0.20152 0.49433
v  0.61029 -0.06625 0.51211
v  0.46668 0.44245 0.38099
v  0.49845 0.45569 0.39100
v  0.49044 0.45218 0.42646
v  0.45867 0.43894 0.41644
v  0.38961 0.69137 0.45790
v  0.42534 0.69116 0.46462
v  0.41980 0.67694 0.49660
v  0.38407 0.67714 0.48988
v  0.42581 0.89200 0.56953
v  0.45919 0.87952 0.57132
v  0.45373 0.87563 0.60870
v  0.42034 0.88811 0.60692
v  0.51266 1.04788 0.53065
v  0.54374 1.03127 0.53346
v  0.54487 1.03923 0.56789
v  0.51379 1.05584 0.56508
# 24 vertices

vn 0.31085 -0.08323 -0.94681
vn 0.31014 -0.08360 -0.94701
vn 0.29576 -0.03613 -0.95458
vn 0.91181 0.31807 0.25966
vn 0.91201 0.31825 0.25874
vn 0.95087 0.10686 0.29057
vn -0.29576 0.03613 0.95458
vn -0.31139 0.08431 0.94653
vn -0.31057 0.08503 0.94674
vn -0.95087 -0.10686 -0.29057
vn -0.91215 -0.31689 -0.25994
vn -0.91243 -0.31684 -0.25900
vn 0.25740 0.11147 -0.95985
vn 0.25531 0.11149 -0.96041
vn 0.89584 0.37352 0.24073
vn 0.89626 0.37378 0.23877
vn -0.25722 -0.11158 0.95989
vn -0.25531 -0.11104 0.96046
vn -0.89586 -0.37369 -0.24042
vn -0.89653 -0.37329 -0.23853
vn 0.17417 0.40131 -0.89923
vn 0.17059 0.40247 -0.89940
vn 0.98481 0.00035 0.17361
vn 0.98540 0.00162 0.17025
vn -0.17362 -0.40018 0.89984
vn -0.17049 -0.40012 0.90046
vn -0.98496 0.00086 -0.17278
vn -0.98557 0.00063 -0.16927
vn 0.21295 0.44545 -0.86961
vn 0.20876 0.44710 -0.86978
vn 0.92884 -0.35713 0.09861
vn 0.92968 -0.35563 0.09603
vn -0.21511 -0.45177 0.86581
vn -0.21012 -0.45229 0.86677
vn -0.93025 0.35325 -0.09922
vn -0.93055 0.35298 -0.09742
vn -0.03212 -0.22503 -0.97382
vn 0.87911 -0.46993 0.07959
vn 0.03212 0.22503 0.97382
vn -0.87911 0.46993 -0.07959
vn 0.09150 -0.99362 0.06596
vn 0.47555 0.85354 -0.21292
# 42 vertex normals

vt 0.03906 0.02679 0.00000
vt 0.04688 0.02734 0.00000
vt 0.04688 0.00781 0.00000
vt 0.03906 0.00781 0.00000
vt 0.04687 0.02721 0.00000
vt 0.05469 0.02734 0.00000
vt 0.05469 0.00781 0.00000
vt 0.06250 0.02734 0.00000
vt 0.06250 0.00836 0.00000
vt 0.06250 0.00781 0.00000
vt 0.07031 0.02734 0.00000
vt 0.07031 0.00795 0.00000
vt 0.03906 0.02734 0.00000
vt 0.03906 0.04687 0.00000
vt 0.04688 0.04687 0.00000
vt 0.04688 0.04688 0.00000
vt 0.05469 0.04688 0.00000
vt 0.06250 0.04688 0.00000
vt 0.06250 0.04687 0.00000
vt 0.07031 0.04687 0.00000
vt 0.03906 0.04688 0.00000
vt 0.03906 0.06641 0.00000
vt 0.04688 0.06641 0.00000
vt 0.05469 0.06641 0.00000
vt 0.06250 0.06641 0.00000
vt 0.07031 0.06641 0.00000
vt 0.07031 0.04688 0.00000
vt 0.03906 0.08594 0.00000
vt 0.04688 0.08594 0.00000
vt 0.05469 0.08594 0.00000
vt 0.06250 0.08594 0.00000
vt 0.07031 0.08594 0.00000
vt 0.03906 0.10547 0.00000
vt 0.04688 0.10547 0.00000
vt 0.04687 0.08646 0.00000
vt 0.04688 0.10405 0.00000
vt 0.05469 0.10547 0.00000
vt 0.05469 0.10499 0.00000
vt 0.06250 0.10547 0.00000
vt 0.07031 0.10547 0.00000
vt 0.07031 0.08732 0.00000
# 41 texture coords

g vine
usemtl base
f 9/15/7 10/16/8 11/17/9 12/18/9 
f 10/19/10 13/20/11 14/21/12 11/17/12 
f 14/21/13 13/20/14 15/22/15 16/23/13 
f 16/24/16 15/22/17 9/25/18 12/26/16 
f 9/27/7 17/28/19 18/29/20 10/16/8 
f 10/16/10 18/30/21 19/31/22 13/20/11 
f 13/20/14 19/31/23 20/32/24 15/22/15 
f 15/22/17 20/33/25 17/34/26 9/25/18 
f 17/35/19 21/36/27 22/37/28 18/30/20 
f 18/30/21 22/37/29 23/38/30 19/31/22 
f 19/31/23 23/38/31 24/39/32 20/32/24 
f 20/32/25 24/39/33 21/40/34 17/41/26 
f 21/36/27 25/42/35 26/43/36 22/37/28 
f 22/37/29 26/43/37 27/44/38 23/38/30 
f 23/38/31 27/44/39 28/45/40 24/39/32 
f 24/39/33 28/45/41 25/46/42 21/40/34 
f 29/47/43 30/48/43 26/49/43 25/42/43 
f 26/43/37 30/50/44 31/51/44 27/44/38 
f 27/44/45 31/52/45 32/53/45 28/45/45 
f 32/53/46 29/54/46 25/55/42 28/45/41 
f 11/18/47 14/18/47 16/18/47 12/18/47 
f 31/18/48 30/18/48 29/18/48 32/18/48 
# 22 polygons

#
# object leaf
#

v  0.56638 0.26102 0.47690
v  0.73309 0.21831 0.51702
v  0.75694 0.22137 0.42117
v  0.59023 0.26408 0.38105
# 4 vertices

vn 0.22741 0.96986 0.08751
# 1 vertex normals

vt 0.08203 0.08203 0.00000
vt 0.09375 0.08203 0.00000
vt 0.09375 0.08984 0.00000
vt 0.08203 0.08984 0.00000
# 4 texture coords

g leaf
usemtl base
f 33/56/49 34/57/49 35/58/49 36/59/49 
# 1 polygons

#
# object leaf001
#

v  0.51131 0.39441 0.44542
v  0.42390 0.30441 0.33825
v  0.49907 0.29391 0.28576
v  0.58648 0.38391 0.39293
# 4 vertices

vn -0.23636 0.83040 -0.50455
# 1 vertex normals

vt 0.08203 0.08203 0.00000
vt 0.09375 0.08203 0.00000
vt 0.09375 0.08984 0.00000
vt 0.08203 0.08984 0.00000
# 4 texture coords

g leaf001
usemtl base
f 40/63/50 39/62/50 38/61/50 37/60/50 
# 1 polygons

#
# object leaf002
#

v  0.41760 0.59001 0.44639
v  0.31709 0.51398 0.44862
v  0.31732 0.51574 0.51909
v  0.41783 0.59177 0.51686
# 4 vertices

vn -0.60342 0.79722 -0.01800
# 1 vertex normals

vt 0.08203 0.08203 0.00000
vt 0.09375 0.08203 0.00000
vt 0.09375 0.08984 0.00000
vt 0.08203 0.08984 0.00000
# 4 texture coords

g leaf002
usemtl base
f 41/64/51 42/65/51 43/66/51 44/67/51 
# 1 polygons

#
# object leaf003
#

v  0.45400 0.52099 0.42578
v  0.51915 0.51034 0.33726
v  0.46964 0.49879 0.30221
v  0.40449 0.50943 0.39073
# 4 vertices

vn -0.09528 0.97759 -0.18771
# 1 vertex normals

vt 0.08203 0.08203 0.00000
vt 0.09375 0.08203 0.00000
vt 0.09375 0.08984 0.00000
vt 0.08203 0.08984 0.00000
# 4 texture coords

g leaf003
usemtl base
f 45/68/52 46/69/52 47/70/52 48/71/52 
# 1 polygons

#
# object leaf004
#

v  0.38754 0.65914 0.47127
v  0.29426 0.62302 0.42874
v  0.32375 0.60625 0.37830
v  0.41703 0.64237 0.42083
# 4 vertices

vn -0.16779 0.90189 -0.39804
# 1 vertex normals

vt 0.08203 0.08203 0.00000
vt 0.09375 0.08203 0.00000
vt 0.09375 0.08984 0.00000
vt 0.08203 0.08984 0.00000
# 4 texture coords

g leaf004
usemtl base
f 52/75/53 51/74/53 50/73/53 49/72/53 
# 1 polygons

#
# object leaf005
#

v  0.42317 0.85380 0.56967
v  0.40702 0.82433 0.66402
v  0.35452 0.81014 0.65061
v  0.37067 0.83961 0.55626
# 4 vertices

vn -0.30904 0.92157 0.23496
# 1 vertex normals

vt 0.08203 0.08203 0.00000
vt 0.09375 0.08203 0.00000
vt 0.09375 0.08984 0.00000
vt 0.08203 0.08984 0.00000
# 4 texture coords

g leaf005
usemtl base
f 56/79/54 55/78/54 54/77/54 53/76/54 
# 1 polygons

#
# object leaf006
#

v  0.39118 0.75376 0.50900
v  0.31411 0.72012 0.46684
v  0.29536 0.70464 0.51348
v  0.37243 0.73827 0.55564
# 4 vertices

vn -0.44902 0.88625 0.11376
# 1 vertex normals

vt 0.08203 0.08203 0.00000
vt 0.09375 0.08203 0.00000
vt 0.09375 0.08984 0.00000
vt 0.08203 0.08984 0.00000
# 4 texture coords

g leaf006
usemtl base
f 57/80/55 58/81/55 59/82/55 60/83/55 
# 1 polygons

#
# object leaf007
#

v  0.48690 0.98333 0.56772
v  0.39404 0.94557 0.53453
v  0.38145 0.92818 0.58954
v  0.47431 0.96594 0.62273
# 4 vertices

vn -0.42566 0.88625 0.18269
# 1 vertex normals

vt 0.08203 0.08203 0.00000
vt 0.09375 0.08203 0.00000
vt 0.09375 0.08984 0.00000
vt 0.08203 0.08984 0.00000
# 4 texture coords

g leaf007
usemtl base
f 61/84/56 62/85/56 63/86/56 64/87/56 
# 1 polygons

#
# object leaf008
#

v  0.53501 1.03374 0.54756
v  0.60227 1.00757 0.58305
v  0.57888 0.99785 0.62021
v  0.51162 1.02402 0.58472
# 4 vertices

vn 0.17356 0.92059 0.34984
# 1 vertex normals

vt 0.08203 0.08203 0.00000
vt 0.09375 0.08203 0.00000
vt 0.09375 0.08984 0.00000
vt 0.08203 0.08984 0.00000
# 4 texture coords

g leaf008
usemtl base
f 68/91/57 67/90/57 66/89/57 65/88/57 
# 1 polygons

