# 3ds Max Wavefront OBJ Exporter v0.97b - (c)2007 guruware
# File Created: 10.08.2012 22:50:41

mtllib tomato_03.mtl

#
# object stake
#

v  0.52500 -0.06250 0.47500
v  0.52500 -0.06250 0.52500
v  0.47500 -0.06250 0.52500
v  0.47500 -0.06250 0.47500
v  0.52500 1.23750 0.47500
v  0.47500 1.23750 0.47500
v  0.47500 1.23750 0.52500
v  0.52500 1.23750 0.52500
# 8 vertices

vn 0.00000 -1.00000 -0.00000
vn 0.00000 1.00000 -0.00000
vn 0.00000 0.00000 1.00000
vn 1.00000 0.00000 -0.00000
vn 0.00000 0.00000 -1.00000
vn -1.00000 0.00000 -0.00000
# 6 vertex normals

vt 0.00781 0.00781 0.00000
vt 0.00000 0.00781 0.00000
vt 0.00000 0.00000 0.00000
vt 0.00781 -0.00000 0.00000
vt 0.01563 0.12500 0.00000
vt 0.01563 0.11719 0.00000
vt 0.02344 0.11719 0.00000
vt 0.02344 0.12500 0.00000
vt 0.03125 0.11719 0.00000
vt 0.02344 0.00781 0.00000
vt 0.03125 0.00781 0.00000
vt 0.00781 0.11719 0.00000
vt 0.00000 0.11719 0.00000
vt 0.01563 0.00781 0.00000
# 14 texture coords

g stake
usemtl base
f 1/1/1 2/2/1 3/3/1 4/4/1 
f 5/5/2 6/6/2 7/7/2 8/8/2 
f 8/9/3 7/7/3 3/10/3 2/11/3 
f 5/12/4 8/13/4 2/2/4 1/1/4 
f 6/6/5 5/12/5 1/1/5 4/14/5 
f 7/7/6 6/6/6 4/14/6 3/10/6 
# 6 polygons

#
# object vine
#

v  0.59943 0.18847 0.47331
v  0.63242 0.19949 0.48354
v  0.65437 -0.06340 0.48883
v  0.62071 -0.06642 0.47844
v  0.62159 0.20424 0.51723
v  0.64396 -0.06358 0.52262
v  0.58860 0.19321 0.50700
v  0.61030 -0.06660 0.51222
v  0.50268 0.39076 0.37740
v  0.53236 0.40817 0.38556
v  0.52229 0.40924 0.42056
v  0.49261 0.39183 0.41240
v  0.38354 0.59493 0.39596
v  0.41937 0.60121 0.40440
v  0.41667 0.58721 0.43772
v  0.38084 0.58092 0.42929
v  0.39535 0.76535 0.51906
v  0.43051 0.76190 0.52046
v  0.42736 0.74142 0.54911
v  0.39220 0.74487 0.54771
# 20 vertices

vn 0.33207 -0.12219 -0.93531
vn 0.33117 -0.12275 -0.93555
vn 0.29457 0.00537 -0.95561
vn 0.91910 0.30107 0.25420
vn 0.91937 0.30118 0.25307
vn 0.95200 0.08542 0.29394
vn -0.29457 -0.00537 0.95561
vn -0.33271 0.12355 0.93490
vn -0.33166 0.12460 0.93514
vn -0.95200 -0.08542 -0.29394
vn -0.91943 -0.29959 -0.25473
vn -0.91986 -0.29932 -0.25349
vn 0.28152 -0.02645 -0.95919
vn 0.27832 -0.02690 -0.96011
vn 0.83997 0.49201 0.22886
vn 0.84048 0.49260 0.22568
vn -0.28186 0.02685 0.95908
vn -0.27897 0.02819 0.95989
vn -0.84030 -0.49166 -0.22840
vn -0.84134 -0.49117 -0.22563
vn 0.14350 0.39781 -0.90618
vn 0.14198 0.39769 -0.90647
vn 0.96754 0.19521 0.16053
vn 0.96785 0.19523 0.15858
vn -0.14269 -0.40079 0.90499
vn -0.14069 -0.39973 0.90577
vn -0.96679 -0.19796 -0.16162
vn -0.96730 -0.19749 -0.15915
vn 0.08912 0.57914 -0.81034
vn 0.99444 -0.09757 0.03964
vn -0.08912 -0.57914 0.81034
vn -0.99444 0.09757 -0.03964
vn 0.08320 -0.99633 0.02005
vn 0.05610 0.80937 0.58462
# 34 vertex normals

vt 0.04297 0.02675 0.00000
vt 0.05078 0.02734 0.00000
vt 0.05078 0.00781 0.00000
vt 0.04297 0.00781 0.00000
vt 0.05078 0.02698 0.00000
vt 0.05859 0.02734 0.00000
vt 0.05859 0.00781 0.00000
vt 0.06641 0.02734 0.00000
vt 0.06641 0.00840 0.00000
vt 0.06641 0.00781 0.00000
vt 0.07422 0.02734 0.00000
vt 0.07422 0.00818 0.00000
vt 0.04297 0.02734 0.00000
vt 0.04297 0.04688 0.00000
vt 0.05078 0.04688 0.00000
vt 0.05859 0.04688 0.00000
vt 0.06641 0.04688 0.00000
vt 0.07422 0.04688 0.00000
vt 0.04297 0.06641 0.00000
vt 0.05078 0.06641 0.00000
vt 0.05859 0.06641 0.00000
vt 0.06641 0.06641 0.00000
vt 0.07422 0.06641 0.00000
vt 0.04297 0.08594 0.00000
vt 0.05078 0.08594 0.00000
vt 0.05078 0.06752 0.00000
vt 0.05859 0.08594 0.00000
vt 0.05859 0.06719 0.00000
vt 0.05859 0.08478 0.00000
vt 0.06641 0.08594 0.00000
vt 0.06641 0.08520 0.00000
vt 0.07422 0.08594 0.00000
# 32 texture coords

g vine
usemtl base
f 9/15/7 10/16/8 11/17/9 12/18/9 
f 10/19/10 13/20/11 14/21/12 11/17/12 
f 14/21/13 13/20/14 15/22/15 16/23/13 
f 16/24/16 15/22/17 9/25/18 12/26/16 
f 9/27/7 17/28/19 18/29/20 10/16/8 
f 10/16/10 18/29/21 19/30/22 13/20/11 
f 13/20/14 19/30/23 20/31/24 15/22/15 
f 15/22/17 20/31/25 17/32/26 9/25/18 
f 17/28/19 21/33/27 22/34/28 18/29/20 
f 18/29/21 22/34/29 23/35/30 19/30/22 
f 19/30/23 23/35/31 24/36/32 20/31/24 
f 20/31/25 24/36/33 21/37/34 17/32/26 
f 25/38/35 26/39/35 22/40/28 21/33/27 
f 26/39/36 27/41/36 23/42/30 22/34/29 
f 23/35/31 27/43/37 28/44/37 24/36/32 
f 24/36/33 28/45/38 25/46/38 21/37/34 
f 11/18/39 14/18/39 16/18/39 12/18/39 
f 27/18/40 26/18/40 25/18/40 28/18/40 
# 18 polygons

#
# object leaf
#

v  0.56638 0.26102 0.47690
v  0.73309 0.21831 0.51702
v  0.75694 0.22137 0.42117
v  0.59023 0.26408 0.38105
# 4 vertices

vn 0.22741 0.96986 0.08751
# 1 vertex normals

vt 0.08203 0.08203 0.00000
vt 0.09375 0.08203 0.00000
vt 0.09375 0.08984 0.00000
vt 0.08203 0.08984 0.00000
# 4 texture coords

g leaf
usemtl base
f 29/47/41 30/48/41 31/49/41 32/50/41 
# 1 polygons

#
# object leaf001
#

v  0.51646 0.39441 0.42434
v  0.42904 0.30441 0.31717
v  0.50421 0.29391 0.26468
v  0.59162 0.38391 0.37185
# 4 vertices

vn -0.23636 0.83040 -0.50455
# 1 vertex normals

vt 0.08203 0.08203 0.00000
vt 0.09375 0.08203 0.00000
vt 0.09375 0.08984 0.00000
vt 0.08203 0.08984 0.00000
# 4 texture coords

g leaf001
usemtl base
f 36/54/42 35/53/42 34/52/42 33/51/42 
# 1 polygons

#
# object leaf002
#

v  0.41760 0.59001 0.40535
v  0.31709 0.51398 0.40758
v  0.31732 0.51574 0.47804
v  0.41783 0.59177 0.47581
# 4 vertices

vn -0.60342 0.79722 -0.01800
# 1 vertex normals

vt 0.08203 0.08203 0.00000
vt 0.09375 0.08203 0.00000
vt 0.09375 0.08984 0.00000
vt 0.08203 0.08984 0.00000
# 4 texture coords

g leaf002
usemtl base
f 37/55/43 38/56/43 39/57/43 40/58/43 
# 1 polygons

#
# object leaf003
#

v  0.44252 0.52099 0.41631
v  0.50767 0.51034 0.32779
v  0.45816 0.49879 0.29274
v  0.39301 0.50943 0.38126
# 4 vertices

vn -0.09528 0.97759 -0.18771
# 1 vertex normals

vt 0.08203 0.08203 0.00000
vt 0.09375 0.08203 0.00000
vt 0.09375 0.08984 0.00000
vt 0.08203 0.08984 0.00000
# 4 texture coords

g leaf003
usemtl base
f 41/59/44 42/60/44 43/61/44 44/62/44 
# 1 polygons

#
# object leaf004
#

v  0.39826 0.69969 0.49678
v  0.30498 0.67659 0.44598
v  0.33447 0.67427 0.39288
v  0.42775 0.69737 0.44367
# 4 vertices

vn -0.16779 0.97641 -0.13590
# 1 vertex normals

vt 0.08203 0.08203 0.00000
vt 0.09375 0.08203 0.00000
vt 0.09375 0.08984 0.00000
vt 0.08203 0.08984 0.00000
# 4 texture coords

g leaf004
usemtl base
f 48/66/45 47/65/45 46/64/45 45/63/45 
# 1 polygons

#
# object leaf006
#

v  0.42030 0.75823 0.47661
v  0.33100 0.78155 0.45846
v  0.31961 0.77779 0.50967
v  0.40891 0.75446 0.52782
# 4 vertices

vn 0.22765 0.96612 0.12160
# 1 vertex normals

vt 0.08203 0.08203 0.00000
vt 0.09375 0.08203 0.00000
vt 0.09375 0.08984 0.00000
vt 0.08203 0.08984 0.00000
# 4 texture coords

g leaf006
usemtl base
f 49/67/46 50/68/46 51/69/46 52/70/46 
# 1 polygons

