# 3ds Max Wavefront OBJ Exporter v0.97b - (c)2007 guruware
# File Created: 10.08.2012 22:48:42

mtllib tomato_00.mtl

#
# object stake
#

v  0.52500 -0.06250 0.47500
v  0.52500 -0.06250 0.52500
v  0.47500 -0.06250 0.52500
v  0.47500 -0.06250 0.47500
v  0.52500 1.23750 0.47500
v  0.47500 1.23750 0.47500
v  0.47500 1.23750 0.52500
v  0.52500 1.23750 0.52500
# 8 vertices

vn 0.00000 -1.00000 -0.00000
vn 0.00000 1.00000 -0.00000
vn 0.00000 0.00000 1.00000
vn 1.00000 0.00000 -0.00000
vn 0.00000 0.00000 -1.00000
vn -1.00000 0.00000 -0.00000
# 6 vertex normals

vt 0.00781 0.00781 0.00000
vt 0.00000 0.00781 0.00000
vt 0.00000 0.00000 0.00000
vt 0.00781 -0.00000 0.00000
vt 0.01563 0.12500 0.00000
vt 0.01563 0.11719 0.00000
vt 0.02344 0.11719 0.00000
vt 0.02344 0.12500 0.00000
vt 0.03125 0.11719 0.00000
vt 0.02344 0.00781 0.00000
vt 0.03125 0.00781 0.00000
vt 0.00781 0.11719 0.00000
vt 0.00000 0.11719 0.00000
vt 0.01563 0.00781 0.00000
# 14 texture coords

g stake
usemtl base
f 1/1/1 2/2/1 3/3/1 4/4/1 
f 5/5/2 6/6/2 7/7/2 8/8/2 
f 8/9/3 7/7/3 3/10/3 2/11/3 
f 5/12/4 8/13/4 2/2/4 1/1/4 
f 6/6/5 5/12/5 1/1/5 4/14/5 
f 7/7/6 6/6/6 4/14/6 3/10/6 
# 6 polygons

#
# object vine
#

v  0.62604 -0.00680 0.49680
v  0.64631 -0.00325 0.50375
v  0.64564 -0.07426 0.49365
v  0.62541 -0.07317 0.48736
v  0.63995 -0.00388 0.52409
v  0.63926 -0.07705 0.51369
v  0.61968 -0.00743 0.51715
v  0.61903 -0.07596 0.50740
v  0.60476 0.05284 0.48509
v  0.62349 0.06071 0.49119
v  0.61641 0.06211 0.51114
v  0.59768 0.05423 0.50504
# 12 vertices

vn 0.31881 0.03309 -0.94724
vn 0.30070 0.13148 -0.94461
vn 0.94011 0.16391 0.29887
vn 0.95367 -0.05117 0.29646
vn -0.30070 -0.13148 0.94461
vn -0.31881 -0.03309 0.94724
vn -0.95367 0.05117 -0.29646
vn -0.94011 -0.16391 -0.29887
vn 0.33373 -0.06563 -0.94038
vn 0.88288 0.37138 0.28740
vn -0.33373 0.06563 0.94038
vn -0.88288 -0.37138 -0.28740
vn -0.00936 -0.99000 -0.14077
vn -0.33038 0.92616 -0.18189
# 14 vertex normals

vt 0.06250 0.06929 0.00000
vt 0.07031 0.07031 0.00000
vt 0.07031 0.05469 0.00000
vt 0.06250 0.05469 0.00000
vt 0.07031 0.06985 0.00000
vt 0.07813 0.07031 0.00000
vt 0.07813 0.05469 0.00000
vt 0.08594 0.07031 0.00000
vt 0.08594 0.05568 0.00000
vt 0.08594 0.05469 0.00000
vt 0.09375 0.07031 0.00000
vt 0.09375 0.05518 0.00000
vt 0.06250 0.07031 0.00000
vt 0.06250 0.08852 0.00000
vt 0.07031 0.08984 0.00000
vt 0.07031 0.08925 0.00000
vt 0.07813 0.08984 0.00000
vt 0.08594 0.08984 0.00000
vt 0.08594 0.07159 0.00000
vt 0.09375 0.08984 0.00000
vt 0.09375 0.07095 0.00000
# 21 texture coords

g vine
usemtl base
f 9/15/7 10/16/7 11/17/8 12/18/8 
f 10/19/9 13/20/9 14/21/10 11/17/10 
f 14/21/11 13/20/12 15/22/12 16/23/11 
f 16/24/13 15/22/14 9/25/14 12/26/13 
f 9/27/7 17/28/15 18/29/15 10/16/7 
f 10/16/9 18/30/16 19/31/16 13/20/9 
f 19/31/17 20/32/17 15/33/12 13/20/12 
f 20/32/18 17/34/18 9/35/14 15/22/14 
f 11/18/19 14/18/19 16/18/19 12/18/19 
f 18/18/20 17/18/20 20/18/20 19/18/20 
# 10 polygons

#
# object leaf
#

v  0.62179 0.02276 0.50377
v  0.67784 0.00491 0.54840
v  0.70380 0.00619 0.51631
v  0.64775 0.02404 0.47168
# 4 vertices

vn 0.16913 0.96986 0.17541
# 1 vertex normals

vt 0.08203 0.08203 0.00000
vt 0.09375 0.08203 0.00000
vt 0.09375 0.08984 0.00000
vt 0.08203 0.08984 0.00000
# 4 texture coords

g leaf
usemtl base
f 21/36/21 22/37/21 23/38/21 24/39/21 
# 1 polygons

