# 3ds Max Wavefront OBJ Exporter v0.97b - (c)2007 guruware
# File Created: 10.08.2012 22:53:49

mtllib tomato_08.mtl

#
# object stake
#

v  0.52500 -0.06250 0.47500
v  0.52500 -0.06250 0.52500
v  0.47500 -0.06250 0.52500
v  0.47500 -0.06250 0.47500
v  0.52500 1.23750 0.47500
v  0.47500 1.23750 0.47500
v  0.47500 1.23750 0.52500
v  0.52500 1.23750 0.52500
# 8 vertices

vn 0.00000 -1.00000 -0.00000
vn 0.00000 1.00000 -0.00000
vn 0.00000 0.00000 1.00000
vn 1.00000 0.00000 -0.00000
vn 0.00000 0.00000 -1.00000
vn -1.00000 0.00000 -0.00000
# 6 vertex normals

vt 0.00781 0.00781 0.00000
vt 0.00000 0.00781 0.00000
vt 0.00000 0.00000 0.00000
vt 0.00781 -0.00000 0.00000
vt 0.01563 0.12500 0.00000
vt 0.01563 0.11719 0.00000
vt 0.02344 0.11719 0.00000
vt 0.02344 0.12500 0.00000
vt 0.03125 0.11719 0.00000
vt 0.02344 0.00781 0.00000
vt 0.03125 0.00781 0.00000
vt 0.00781 0.11719 0.00000
vt 0.00000 0.11719 0.00000
vt 0.01563 0.00781 0.00000
# 14 texture coords

g stake
usemtl base
f 1/1/1 2/2/1 3/3/1 4/4/1 
f 5/5/2 6/6/2 7/7/2 8/8/2 
f 8/9/3 7/7/3 3/10/3 2/11/3 
f 5/12/4 8/13/4 2/2/4 1/1/4 
f 6/6/5 5/12/5 1/1/5 4/14/5 
f 7/7/6 6/6/6 4/14/6 3/10/6 
# 6 polygons

#
# object vine
#

v  0.59620 0.19901 0.46066
v  0.62914 0.21011 0.47045
v  0.65437 -0.06375 0.48863
v  0.62075 -0.06753 0.47836
v  0.61859 0.21245 0.50413
v  0.64391 -0.06247 0.52238
v  0.58565 0.20135 0.49434
v  0.61029 -0.06625 0.51211
v  0.46982 0.44496 0.39458
v  0.50111 0.45879 0.40447
v  0.49341 0.45378 0.43979
v  0.46211 0.43995 0.42991
v  0.36368 0.71549 0.48731
v  0.40047 0.71434 0.49357
v  0.39442 0.70130 0.52587
v  0.35763 0.70245 0.51961
v  0.44496 0.95986 0.59629
v  0.47738 0.94586 0.59892
v  0.47319 0.94489 0.63621
v  0.44077 0.95888 0.63358
v  0.53741 1.13535 0.54163
v  0.56915 1.12014 0.54497
v  0.57490 1.13873 0.57619
v  0.54315 1.15394 0.57285
v  0.61695 1.26986 0.37179
v  0.64882 1.25487 0.37484
v  0.65807 1.27938 0.39858
v  0.62620 1.29437 0.39553
# 28 vertices

vn 0.30452 -0.06305 -0.95042
vn 0.30378 -0.06340 -0.95063
vn 0.29576 -0.03613 -0.95458
vn 0.91358 0.30761 0.26598
vn 0.91379 0.30782 0.26501
vn 0.95087 0.10686 0.29057
vn -0.29576 0.03613 0.95458
vn -0.30508 0.06419 0.95016
vn -0.30421 0.06490 0.95039
vn -0.95087 -0.10686 -0.29057
vn -0.91393 -0.30637 -0.26622
vn -0.91422 -0.30635 -0.26525
vn 0.23908 0.14931 -0.95945
vn 0.23631 0.14926 -0.96014
vn 0.88499 0.39247 0.25051
vn 0.88543 0.39312 0.24793
vn -0.23919 -0.14872 0.95952
vn -0.23670 -0.14806 0.96023
vn -0.88533 -0.39202 -0.25001
vn -0.88608 -0.39184 -0.24762
vn 0.16975 0.36842 -0.91403
vn 0.16584 0.36947 -0.91432
vn 0.98423 -0.03228 0.17395
vn 0.98497 -0.03152 0.16983
vn -0.16893 -0.36825 0.91425
vn -0.16533 -0.36781 0.91509
vn -0.98426 0.03274 -0.17368
vn -0.98500 0.03292 -0.16939
vn 0.09501 0.03198 -0.99496
vn 0.09206 0.03248 -0.99522
vn 0.91307 -0.39720 0.09241
vn 0.91385 -0.39606 0.08946
vn -0.09613 -0.03482 0.99476
vn -0.09296 -0.03465 0.99507
vn -0.91437 0.39411 -0.09279
vn -0.91460 0.39409 -0.09049
vn -0.15364 -0.50672 -0.84831
vn -0.15412 -0.50654 -0.84833
vn 0.89719 -0.43195 0.09204
vn 0.89721 -0.43202 0.09147
vn 0.15334 0.50618 0.84869
vn 0.15383 0.50613 0.84863
vn -0.89751 0.43138 -0.09164
vn -0.89747 0.43154 -0.09128
vn -0.26158 -0.69326 -0.67154
vn 0.90156 -0.42393 0.08646
vn 0.26158 0.69326 0.67154
vn -0.90156 0.42393 -0.08646
vn 0.09150 -0.99362 0.06596
vn 0.34463 0.58281 -0.73591
# 50 vertex normals

vt 0.03125 0.03802 0.00000
vt 0.03906 0.03906 0.00000
vt 0.03906 0.00000 0.00000
vt 0.03125 0.00000 0.00000
vt 0.03906 0.03891 0.00000
vt 0.04688 0.03906 0.00000
vt 0.04688 0.00000 0.00000
vt 0.05469 0.03906 0.00000
vt 0.05469 0.00104 0.00000
vt 0.05469 0.00000 0.00000
vt 0.06250 0.03906 0.00000
vt 0.06250 0.00015 0.00000
vt 0.03125 0.03906 0.00000
vt 0.03125 0.07813 0.00000
vt 0.03906 0.07813 0.00000
vt 0.04688 0.07813 0.00000
vt 0.05469 0.07813 0.00000
vt 0.06250 0.07813 0.00000
vt 0.03125 0.11719 0.00000
vt 0.03906 0.11719 0.00000
vt 0.04688 0.11719 0.00000
vt 0.05469 0.11719 0.00000
vt 0.06250 0.11719 0.00000
vt 0.06250 0.00781 0.00000
vt 0.06250 0.04687 0.00000
vt 0.07031 0.04687 0.00000
vt 0.07031 0.00781 0.00000
vt 0.07031 0.04688 0.00000
vt 0.07813 0.04688 0.00000
vt 0.07813 0.00781 0.00000
vt 0.08594 0.04688 0.00000
vt 0.08594 0.00781 0.00000
vt 0.09375 0.04688 0.00000
vt 0.09375 0.00781 0.00000
vt 0.06250 0.04688 0.00000
vt 0.06250 0.08594 0.00000
vt 0.07031 0.08594 0.00000
vt 0.07813 0.08594 0.00000
vt 0.08594 0.08594 0.00000
vt 0.09375 0.08594 0.00000
vt 0.06250 0.12494 0.00000
vt 0.07031 0.12500 0.00000
vt 0.07031 0.12335 0.00000
vt 0.07813 0.12500 0.00000
vt 0.08594 0.12500 0.00000
vt 0.08594 0.08600 0.00000
vt 0.09375 0.12500 0.00000
vt 0.09375 0.08759 0.00000
vt 0.07422 0.00781 0.00000
vt 0.06641 0.00781 0.00000
vt 0.06641 0.00000 0.00000
vt 0.07422 0.00000 0.00000
vt 0.08984 0.00000 0.00000
vt 0.08984 0.00781 0.00000
vt 0.08203 0.00781 0.00000
vt 0.08203 -0.00000 0.00000
# 56 texture coords

g vine
usemtl base
f 9/15/7 10/16/8 11/17/9 12/18/9 
f 10/19/10 13/20/11 14/21/12 11/17/12 
f 14/21/13 13/20/14 15/22/15 16/23/13 
f 16/24/16 15/22/17 9/25/18 12/26/16 
f 9/27/7 17/28/19 18/29/20 10/16/8 
f 10/16/10 18/29/21 19/30/22 13/20/11 
f 13/20/14 19/30/23 20/31/24 15/22/15 
f 15/22/17 20/31/25 17/32/26 9/25/18 
f 17/28/19 21/33/27 22/34/28 18/29/20 
f 18/29/21 22/34/29 23/35/30 19/30/22 
f 19/30/23 23/35/31 24/36/32 20/31/24 
f 20/31/25 24/36/33 21/37/34 17/32/26 
f 21/38/27 25/39/35 26/40/36 22/41/28 
f 22/41/29 26/42/37 27/43/38 23/44/30 
f 23/44/31 27/43/39 28/45/40 24/46/32 
f 24/46/33 28/45/41 25/47/42 21/48/34 
f 25/49/35 29/50/43 30/51/44 26/42/36 
f 26/42/37 30/51/45 31/52/46 27/43/38 
f 27/43/39 31/52/47 32/53/48 28/45/40 
f 28/45/41 32/53/49 29/54/50 25/47/42 
f 29/50/43 33/55/51 34/56/51 30/51/44 
f 30/51/45 34/57/52 35/58/52 31/52/46 
f 35/58/53 36/59/53 32/60/48 31/52/47 
f 36/59/54 33/61/54 29/62/50 32/53/49 
f 11/63/55 14/64/55 16/65/55 12/66/55 
f 35/67/56 34/68/56 33/69/56 36/70/56 
# 26 polygons

#
# object leaf
#

v  0.55706 0.29087 0.47317
v  0.77655 0.19291 0.52920
v  0.81010 0.19151 0.39532
v  0.59061 0.28948 0.33929
# 4 vertices

vn 0.38731 0.91779 0.08751
# 1 vertex normals

vt 0.08203 0.08203 0.00000
vt 0.09375 0.08203 0.00000
vt 0.09375 0.08984 0.00000
vt 0.08203 0.08984 0.00000
# 4 texture coords

g leaf
usemtl base
f 37/71/57 38/72/57 39/73/57 40/74/57 
# 1 polygons

#
# object leaf001
#

v  0.50563 0.41435 0.43218
v  0.38354 0.28864 0.28249
v  0.48852 0.27398 0.20918
v  0.61061 0.39968 0.35887
# 4 vertices

vn -0.23636 0.83040 -0.50455
# 1 vertex normals

vt 0.08203 0.08203 0.00000
vt 0.09375 0.08203 0.00000
vt 0.09375 0.08984 0.00000
vt 0.08203 0.08984 0.00000
# 4 texture coords

g leaf001
usemtl base
f 44/78/58 43/77/58 42/76/58 41/75/58 
# 1 polygons

#
# object leaf002
#

v  0.42536 0.59029 0.44950
v  0.30929 0.50250 0.45208
v  0.30955 0.50454 0.53345
v  0.42563 0.59233 0.53088
# 4 vertices

vn -0.60342 0.79722 -0.01800
# 1 vertex normals

vt 0.08203 0.08203 0.00000
vt 0.09375 0.08203 0.00000
vt 0.09375 0.08984 0.00000
vt 0.08203 0.08984 0.00000
# 4 texture coords

g leaf002
usemtl base
f 45/79/59 46/80/59 47/81/59 48/82/59 
# 1 polygons

#
# object leaf003
#

v  0.45014 0.52647 0.46141
v  0.54744 0.51057 0.32922
v  0.47350 0.49331 0.27687
v  0.37620 0.50921 0.40906
# 4 vertices

vn -0.09528 0.97759 -0.18771
# 1 vertex normals

vt 0.08203 0.08203 0.00000
vt 0.09375 0.08203 0.00000
vt 0.09375 0.08984 0.00000
vt 0.08203 0.08984 0.00000
# 4 texture coords

g leaf003
usemtl base
f 49/83/60 50/84/60 51/85/60 52/86/60 
# 1 polygons

#
# object leaf004
#

v  0.38700 0.69023 0.49862
v  0.26935 0.64467 0.44498
v  0.30655 0.62351 0.38137
v  0.42420 0.66908 0.43501
# 4 vertices

vn -0.16779 0.90189 -0.39804
# 1 vertex normals

vt 0.08203 0.08203 0.00000
vt 0.09375 0.08203 0.00000
vt 0.09375 0.08984 0.00000
vt 0.08203 0.08984 0.00000
# 4 texture coords

g leaf004
usemtl base
f 56/90/61 55/89/61 54/88/61 53/87/61 
# 1 polygons

#
# object leaf005
#

v  0.42455 0.87160 0.56539
v  0.42605 0.81810 0.73917
v  0.32793 0.79234 0.73210
v  0.32643 0.84585 0.55831
# 4 vertices

vn -0.26251 0.92157 0.28600
# 1 vertex normals

vt 0.08203 0.08203 0.00000
vt 0.09375 0.08203 0.00000
vt 0.09375 0.08984 0.00000
vt 0.08203 0.08984 0.00000
# 4 texture coords

g leaf005
usemtl base
f 60/94/62 59/93/62 58/92/62 57/91/62 
# 1 polygons

#
# object leaf006
#

v  0.39241 0.76184 0.53693
v  0.31237 0.71714 0.45195
v  0.26948 0.69656 0.50318
v  0.34952 0.74125 0.58815
# 4 vertices

vn -0.46218 0.88625 -0.03084
# 1 vertex normals

vt 0.08203 0.08203 0.00000
vt 0.09375 0.08203 0.00000
vt 0.09375 0.08984 0.00000
vt 0.08203 0.08984 0.00000
# 4 texture coords

g leaf006
usemtl base
f 61/95/63 62/96/63 63/97/63 64/98/63 
# 1 polygons

#
# object leaf007
#

v  0.48535 1.01816 0.60841
v  0.38322 0.97346 0.55187
v  0.35799 0.95288 0.61373
v  0.46012 0.99758 0.67027
# 4 vertices

vn -0.44959 0.88625 0.11148
# 1 vertex normals

vt 0.08203 0.08203 0.00000
vt 0.09375 0.08203 0.00000
vt 0.09375 0.08984 0.00000
vt 0.08203 0.08984 0.00000
# 4 texture coords

g leaf007
usemtl base
f 65/99/64 66/100/64 67/101/64 68/102/64 
# 1 polygons

#
# object leaf008
#

v  0.53005 1.07259 0.57080
v  0.64373 1.03192 0.60316
v  0.62011 1.01682 0.66719
v  0.50642 1.05749 0.63484
# 4 vertices

vn 0.24214 0.92059 0.30640
# 1 vertex normals

vt 0.08203 0.08203 0.00000
vt 0.09375 0.08203 0.00000
vt 0.09375 0.08984 0.00000
vt 0.08203 0.08984 0.00000
# 4 texture coords

g leaf008
usemtl base
f 72/106/65 71/105/65 70/104/65 69/103/65 
# 1 polygons

#
# object leaf009
#

v  0.56444 1.26409 0.41097
v  0.52538 1.29274 0.52620
v  0.58151 1.26094 0.55313
v  0.62057 1.23229 0.43790
# 4 vertices

vn 0.50762 0.86056 -0.04190
# 1 vertex normals

vt 0.08203 0.08203 0.00000
vt 0.09375 0.08203 0.00000
vt 0.09375 0.08984 0.00000
vt 0.08203 0.08984 0.00000
# 4 texture coords

g leaf009
usemtl base
f 73/107/66 74/108/66 75/109/66 76/110/66 
# 1 polygons

#
# object leaf010
#

v  0.63065 1.14312 0.51912
v  0.65101 1.15820 0.64153
v  0.58476 1.17885 0.65000
v  0.56440 1.16377 0.52760
# 4 vertices

vn 0.27462 0.94774 -0.16241
# 1 vertex normals

vt 0.08203 0.08203 0.00000
vt 0.09375 0.08203 0.00000
vt 0.09375 0.08984 0.00000
vt 0.08203 0.08984 0.00000
# 4 texture coords

g leaf010
usemtl base
f 80/114/67 79/113/67 78/112/67 77/111/67 
# 1 polygons

#
# object leaf011
#

v  0.63348 1.25982 0.39619
v  0.58463 1.26626 0.28131
v  0.64869 1.26122 0.25378
v  0.69754 1.25478 0.36866
# 4 vertices

vn 0.08649 0.99607 0.01908
# 1 vertex normals

vt 0.08203 0.08203 0.00000
vt 0.09375 0.08203 0.00000
vt 0.09375 0.08984 0.00000
vt 0.08203 0.08984 0.00000
# 4 texture coords

g leaf011
usemtl base
f 84/118/68 83/117/68 82/116/68 81/115/68 
# 1 polygons

#
# object tomato_unripe
#

v  0.56959 0.98095 0.62079
v  0.56244 0.96219 0.57499
v  0.60754 0.94067 0.57677
v  0.61468 0.95943 0.62257
v  0.58997 1.02200 0.60079
v  0.63507 1.00047 0.60257
v  0.62792 0.98171 0.55678
v  0.58282 1.00324 0.55500
# 8 vertices

vn -0.40764 -0.82092 0.39990
vn 0.40764 0.82092 -0.39990
vn 0.14295 0.37517 0.91587
vn 0.90189 -0.43051 0.03559
vn -0.14295 -0.37517 -0.91587
vn -0.90189 0.43051 -0.03559
# 6 vertex normals

vt 0.11719 0.03906 0.00000
vt 0.11719 0.06250 0.00000
vt 0.09375 0.06250 0.00000
vt 0.09375 0.03906 0.00000
vt 0.09375 0.01563 0.00000
vt 0.11719 0.01563 0.00000
# 6 texture coords

g tomato_unripe
usemtl base
f 85/119/69 86/120/69 87/121/69 88/122/69 
f 89/122/70 90/119/70 91/120/70 92/121/70 
f 85/123/71 88/124/71 90/119/71 89/122/71 
f 88/123/72 87/124/72 91/119/72 90/122/72 
f 87/123/73 86/124/73 92/119/73 91/122/73 
f 86/123/74 85/124/74 89/119/74 92/122/74 
# 6 polygons

#
# object Line001
#

v  0.52477 1.05601 0.58171
v  0.62535 1.01632 0.58775
v  0.61604 1.00206 0.58290
v  0.51888 1.04040 0.57706
v  0.61955 1.00532 0.59982
v  0.51960 1.04475 0.59381
v  0.70874 0.93979 0.56456
v  0.69675 0.92798 0.56045
v  0.70244 0.92923 0.57676
# 9 vertices

vn 0.14862 0.23011 -0.96175
vn 0.08470 0.27089 -0.95888
vn -0.36839 -0.89581 0.24862
vn -0.49390 -0.82915 0.26187
vn 0.21977 0.66570 0.71313
vn 0.41439 0.56419 0.71412
vn 0.02029 0.31011 -0.95048
vn -0.60935 -0.74560 0.26977
vn 0.58905 0.43549 0.68071
vn -0.92876 0.36644 -0.05584
vn 0.72171 -0.66245 -0.20073
# 11 vertex normals

vt 0.04688 0.03125 0.00000
vt 0.04688 0.05078 0.00000
vt 0.05078 0.05078 0.00000
vt 0.05078 0.03125 0.00000
vt 0.05469 0.05078 0.00000
vt 0.05469 0.03125 0.00000
vt 0.05859 0.05078 0.00000
vt 0.05859 0.03125 0.00000
vt 0.04688 0.07031 0.00000
vt 0.05078 0.07031 0.00000
vt 0.05469 0.07031 0.00000
vt 0.05859 0.07031 0.00000
# 12 texture coords

g Line001
usemtl base
f 93/125/75 94/126/76 95/127/76 96/128/75 
f 96/128/77 95/127/78 97/129/78 98/130/77 
f 98/130/79 97/129/80 94/131/80 93/132/79 
f 94/126/76 99/133/81 100/134/81 95/127/76 
f 95/127/78 100/134/82 101/135/82 97/129/78 
f 97/129/80 101/135/83 99/136/83 94/131/80 
f 96/125/84 98/125/84 93/125/84 
f 101/125/85 100/125/85 99/125/85 
# 6 polygons - 2 triangles

#
# object tomato_unripe001
#

v  0.60637 0.93377 0.58762
v  0.60442 0.95908 0.54454
v  0.64510 0.93486 0.52847
v  0.64705 0.90955 0.57155
v  0.63537 0.96945 0.60727
v  0.67605 0.94523 0.59120
v  0.67410 0.97054 0.54812
v  0.63342 0.99476 0.56419
# 8 vertices

vn -0.58001 -0.71357 -0.39294
vn 0.58001 0.71357 0.39294
vn 0.03903 -0.50616 0.86156
vn 0.81368 -0.48437 -0.32142
vn -0.03903 0.50616 -0.86156
vn -0.81368 0.48437 0.32142
# 6 vertex normals

vt 0.11719 0.03906 0.00000
vt 0.11719 0.06250 0.00000
vt 0.09375 0.06250 0.00000
vt 0.09375 0.03906 0.00000
vt 0.09375 0.01563 0.00000
vt 0.11719 0.01563 0.00000
# 6 texture coords

g tomato_unripe001
usemtl base
f 102/137/86 103/138/86 104/139/86 105/140/86 
f 106/140/87 107/137/87 108/138/87 109/139/87 
f 102/141/88 105/142/88 107/137/88 106/140/88 
f 105/141/89 104/142/89 108/137/89 107/140/89 
f 104/141/90 103/142/90 109/137/90 108/140/90 
f 103/141/91 102/142/91 106/137/91 109/140/91 
# 6 polygons

#
# object tomato_unripe002
#

v  0.67917 0.88049 0.56858
v  0.70499 0.89697 0.52906
v  0.74329 0.90871 0.55898
v  0.71747 0.89224 0.59850
v  0.66003 0.92622 0.57514
v  0.69833 0.93796 0.60505
v  0.72415 0.95444 0.56553
v  0.68585 0.94269 0.53561
# 8 vertices

vn 0.38281 -0.91448 -0.13104
vn -0.38281 0.91448 0.13104
vn -0.51642 -0.32944 0.79043
vn 0.76601 0.23492 0.59837
vn 0.51642 0.32944 -0.79043
vn -0.76601 -0.23492 -0.59837
# 6 vertex normals

vt 0.11719 0.03906 0.00000
vt 0.11719 0.06250 0.00000
vt 0.09375 0.06250 0.00000
vt 0.09375 0.03906 0.00000
vt 0.09375 0.01563 0.00000
vt 0.11719 0.01563 0.00000
# 6 texture coords

g tomato_unripe002
usemtl base
f 110/143/92 111/144/92 112/145/92 113/146/92 
f 114/146/93 115/143/93 116/144/93 117/145/93 
f 110/147/94 113/148/94 115/143/94 114/146/94 
f 113/147/95 112/148/95 116/143/95 115/146/95 
f 112/147/96 111/148/96 117/143/96 116/146/96 
f 111/147/97 110/148/97 114/143/97 117/146/97 
# 6 polygons

#
# object tomato_unripe003
#

v  0.49762 0.58873 0.63388
v  0.55104 0.60418 0.64750
v  0.53790 0.60056 0.70311
v  0.48448 0.58510 0.68949
v  0.48174 0.64374 0.63371
v  0.46861 0.64011 0.68933
v  0.52203 0.65557 0.70295
v  0.53517 0.65919 0.64734
# 8 vertices

vn 0.27720 -0.96081 0.00281
vn -0.27720 0.96081 -0.00281
vn -0.93303 -0.26989 -0.23793
vn -0.22937 -0.06333 0.97128
vn 0.93303 0.26989 0.23793
vn 0.22937 0.06333 -0.97128
# 6 vertex normals

vt 0.11719 0.03906 0.00000
vt 0.11719 0.06250 0.00000
vt 0.09375 0.06250 0.00000
vt 0.09375 0.03906 0.00000
vt 0.09375 0.01563 0.00000
vt 0.11719 0.01563 0.00000
# 6 texture coords

g tomato_unripe003
usemtl base
f 118/149/98 119/150/98 120/151/98 121/152/98 
f 122/152/99 123/149/99 124/150/99 125/151/99 
f 118/153/100 121/154/100 123/149/100 122/152/100 
f 121/153/101 120/154/101 124/149/101 123/152/101 
f 120/153/102 119/154/102 125/149/102 124/152/102 
f 119/153/103 118/154/103 122/149/103 125/152/103 
# 6 polygons

#
# object tomato_unripe004
#

v  0.44338 0.66721 0.58862
v  0.48740 0.70162 0.57612
v  0.52338 0.66460 0.60090
v  0.47936 0.63019 0.61340
v  0.43658 0.69411 0.63870
v  0.47255 0.65710 0.66348
v  0.51657 0.69151 0.65098
v  0.48060 0.72852 0.62620
# 8 vertices

vn 0.11889 -0.46993 -0.87466
vn -0.11889 0.46993 0.87466
vn -0.76885 -0.60098 0.21839
vn 0.62828 -0.64652 0.43276
vn 0.76885 0.60098 -0.21839
vn -0.62828 0.64652 -0.43276
# 6 vertex normals

vt 0.11719 0.03906 0.00000
vt 0.11719 0.06250 0.00000
vt 0.09375 0.06250 0.00000
vt 0.09375 0.03906 0.00000
vt 0.09375 0.01563 0.00000
vt 0.11719 0.01563 0.00000
# 6 texture coords

g tomato_unripe004
usemtl base
f 126/155/104 127/156/104 128/157/104 129/158/104 
f 130/158/105 131/155/105 132/156/105 133/157/105 
f 126/159/106 129/160/106 131/155/106 130/158/106 
f 129/159/107 128/160/107 132/155/107 131/158/107 
f 128/159/108 127/160/108 133/155/108 132/158/108 
f 127/159/109 126/160/109 130/155/109 133/158/109 
# 6 polygons

#
# object Line002
#

v  0.41103 0.82729 0.54741
v  0.45221 0.75123 0.63629
v  0.45287 0.73932 0.61989
v  0.41310 0.81279 0.53404
v  0.43688 0.73933 0.63212
v  0.39597 0.81491 0.54380
v  0.51577 0.64462 0.68209
v  0.51440 0.63612 0.66422
v  0.50007 0.63334 0.67765
# 9 vertices

vn 0.93749 0.29859 -0.17878
vn 0.90852 0.35478 -0.22073
vn -0.37838 -0.78255 -0.49441
vn -0.44219 -0.68595 -0.57788
vn -0.55911 0.48396 0.67319
vn -0.47978 0.33323 0.81165
vn 0.87432 0.40893 -0.26142
vn -0.49699 -0.57537 -0.64958
vn -0.37733 0.16644 0.91100
vn -0.33201 0.61331 -0.71667
vn 0.48041 -0.80582 0.34621
# 11 vertex normals

vt 0.04688 0.03125 0.00000
vt 0.04688 0.05078 0.00000
vt 0.05078 0.05078 0.00000
vt 0.05078 0.03125 0.00000
vt 0.05469 0.05078 0.00000
vt 0.05469 0.03125 0.00000
vt 0.05859 0.05078 0.00000
vt 0.05859 0.03125 0.00000
vt 0.04688 0.07031 0.00000
vt 0.05078 0.07031 0.00000
vt 0.05469 0.07031 0.00000
vt 0.05859 0.07031 0.00000
# 12 texture coords

g Line002
usemtl base
f 134/161/110 135/162/111 136/163/111 137/164/110 
f 137/164/112 136/163/113 138/165/113 139/166/112 
f 139/166/114 138/165/115 135/167/115 134/168/114 
f 135/162/111 140/169/116 141/170/116 136/163/111 
f 136/163/113 141/170/117 142/171/117 138/165/113 
f 138/165/115 142/171/118 140/172/118 135/167/115 
f 137/161/119 139/161/119 134/161/119 
f 142/161/120 141/161/120 140/161/120 
# 6 polygons - 2 triangles

#
# object tomato_unripe005
#

v  0.39142 0.72558 0.58341
v  0.43582 0.71396 0.54918
v  0.45525 0.67592 0.58731
v  0.41085 0.68754 0.62154
v  0.42190 0.76677 0.60896
v  0.44134 0.72873 0.64709
v  0.48574 0.71710 0.61286
v  0.46630 0.75514 0.57473
# 8 vertices

vn -0.53238 -0.71930 -0.44630
vn 0.53238 0.71930 0.44630
vn -0.77549 0.20305 0.59782
vn 0.33939 -0.66437 0.66591
vn 0.77549 -0.20305 -0.59782
vn -0.33939 0.66437 -0.66591
# 6 vertex normals

vt 0.11719 0.03906 0.00000
vt 0.11719 0.06250 0.00000
vt 0.09375 0.06250 0.00000
vt 0.09375 0.03906 0.00000
vt 0.09375 0.01563 0.00000
vt 0.11719 0.01563 0.00000
# 6 texture coords

g tomato_unripe005
usemtl base
f 143/173/121 144/174/121 145/175/121 146/176/121 
f 147/176/122 148/173/122 149/174/122 150/175/122 
f 143/177/123 146/178/123 148/173/123 147/176/123 
f 146/177/124 145/178/124 149/173/124 148/176/124 
f 145/177/125 144/178/125 150/173/125 149/176/125 
f 144/177/126 143/178/126 147/173/126 150/176/126 
# 6 polygons

