# 3ds Max Wavefront OBJ Exporter v0.97b - (c)2007 guruware
# File Created: 10.08.2012 22:50:18

mtllib tomato_02.mtl

#
# object stake
#

v  0.52500 -0.06250 0.47500
v  0.52500 -0.06250 0.52500
v  0.47500 -0.06250 0.52500
v  0.47500 -0.06250 0.47500
v  0.52500 1.23750 0.47500
v  0.47500 1.23750 0.47500
v  0.47500 1.23750 0.52500
v  0.52500 1.23750 0.52500
# 8 vertices

vn 0.00000 -1.00000 -0.00000
vn 0.00000 1.00000 -0.00000
vn 0.00000 0.00000 1.00000
vn 1.00000 0.00000 -0.00000
vn 0.00000 0.00000 -1.00000
vn -1.00000 0.00000 -0.00000
# 6 vertex normals

vt 0.00781 0.00781 0.00000
vt 0.00000 0.00781 0.00000
vt 0.00000 0.00000 0.00000
vt 0.00781 -0.00000 0.00000
vt 0.01563 0.12500 0.00000
vt 0.01563 0.11719 0.00000
vt 0.02344 0.11719 0.00000
vt 0.02344 0.12500 0.00000
vt 0.03125 0.11719 0.00000
vt 0.02344 0.00781 0.00000
vt 0.03125 0.00781 0.00000
vt 0.00781 0.11719 0.00000
vt 0.00000 0.11719 0.00000
vt 0.01563 0.00781 0.00000
# 14 texture coords

g stake
usemtl base
f 1/1/1 2/2/1 3/3/1 4/4/1 
f 5/5/2 6/6/2 7/7/2 8/8/2 
f 8/9/3 7/7/3 3/10/3 2/11/3 
f 5/12/4 8/13/4 2/2/4 1/1/4 
f 6/6/5 5/12/5 1/1/5 4/14/5 
f 7/7/6 6/6/6 4/14/6 3/10/6 
# 6 polygons

#
# object vine
#

v  0.60547 0.15868 0.48745
v  0.63216 0.16399 0.49591
v  0.64997 -0.07360 0.49122
v  0.62302 -0.07546 0.48283
v  0.62358 0.16622 0.52298
v  0.64165 -0.07476 0.51822
v  0.59689 0.16091 0.51453
v  0.61470 -0.07662 0.50984
v  0.56057 0.34429 0.43260
v  0.58472 0.35913 0.43894
v  0.57596 0.35923 0.46638
v  0.55181 0.34439 0.46004
v  0.45099 0.45517 0.42821
v  0.47051 0.47469 0.43436
v  0.46558 0.47092 0.46196
v  0.44607 0.45139 0.45580
# 16 vertices

vn 0.31564 -0.07459 -0.94594
vn 0.31468 -0.07490 -0.94624
vn 0.29438 0.04092 -0.95481
vn 0.94067 0.18592 0.28387
vn 0.94095 0.18599 0.28288
vn 0.95276 0.06557 0.29656
vn -0.29438 -0.04092 0.95481
vn -0.31600 0.07597 0.94571
vn -0.31496 0.07664 0.94601
vn -0.95276 -0.06557 -0.29656
vn -0.94083 -0.18451 -0.28424
vn -0.94122 -0.18424 -0.28311
vn 0.26901 -0.02637 -0.96278
vn 0.26765 -0.02641 -0.96315
vn 0.81969 0.51054 0.25972
vn 0.81990 0.51071 0.25874
vn -0.26814 0.02483 0.96306
vn -0.26717 0.02508 0.96332
vn -0.81880 -0.51211 -0.25943
vn -0.81927 -0.51197 -0.25825
vn 0.17419 0.13348 -0.97562
vn 0.68989 0.69043 0.21764
vn -0.17419 -0.13348 0.97562
vn -0.68989 -0.69043 -0.21764
vn 0.07474 -0.99701 -0.01969
vn -0.70265 0.71098 -0.02818
# 26 vertex normals

vt 0.04687 0.07009 0.00000
vt 0.05469 0.07031 0.00000
vt 0.05469 0.05469 0.00000
vt 0.04688 0.05469 0.00000
vt 0.05469 0.07009 0.00000
vt 0.06250 0.07031 0.00000
vt 0.06250 0.05469 0.00000
vt 0.07031 0.07031 0.00000
vt 0.07031 0.05491 0.00000
vt 0.07031 0.05469 0.00000
vt 0.07813 0.07031 0.00000
vt 0.07813 0.05491 0.00000
vt 0.04688 0.07031 0.00000
vt 0.04688 0.08984 0.00000
vt 0.05469 0.08984 0.00000
vt 0.06250 0.08984 0.00000
vt 0.07031 0.08984 0.00000
vt 0.07813 0.08984 0.00000
vt 0.04688 0.10483 0.00000
vt 0.05469 0.10547 0.00000
vt 0.06250 0.10547 0.00000
vt 0.06250 0.09037 0.00000
vt 0.07031 0.10547 0.00000
vt 0.07031 0.09050 0.00000
vt 0.07031 0.10492 0.00000
vt 0.07813 0.10547 0.00000
vt 0.04687 0.05469 0.00000
# 27 texture coords

g vine
usemtl base
f 9/15/7 10/16/8 11/17/9 12/18/9 
f 10/19/10 13/20/11 14/21/12 11/17/12 
f 14/21/13 13/20/14 15/22/15 16/23/13 
f 16/24/16 15/22/17 9/25/18 12/26/16 
f 9/27/7 17/28/19 18/29/20 10/16/8 
f 10/16/10 18/29/21 19/30/22 13/20/11 
f 13/20/14 19/30/23 20/31/24 15/22/15 
f 15/22/17 20/31/25 17/32/26 9/25/18 
f 17/28/19 21/33/27 22/34/27 18/29/20 
f 22/34/28 23/35/28 19/36/22 18/29/21 
f 23/35/29 24/37/29 20/38/24 19/30/23 
f 20/31/25 24/39/30 21/40/30 17/32/26 
f 11/18/31 14/18/31 16/41/31 12/18/31 
f 22/18/32 21/18/32 24/18/32 23/18/32 
# 14 polygons

#
# object leaf
#

v  0.58202 0.25728 0.48333
v  0.69088 0.22262 0.57001
v  0.74130 0.22510 0.50768
v  0.63243 0.25976 0.42100
# 4 vertices

vn 0.16913 0.96986 0.17541
# 1 vertex normals

vt 0.08203 0.08203 0.00000
vt 0.09375 0.08203 0.00000
vt 0.09375 0.08984 0.00000
vt 0.08203 0.08984 0.00000
# 4 texture coords

g leaf
usemtl base
f 25/42/33 26/43/33 27/44/33 28/45/33 
# 1 polygons

#
# object leaf001
#

v  0.52923 0.37854 0.44817
v  0.46943 0.31697 0.37485
v  0.52085 0.30978 0.33893
v  0.58066 0.37136 0.41226
# 4 vertices

vn -0.23636 0.83040 -0.50455
# 1 vertex normals

vt 0.08203 0.08203 0.00000
vt 0.09375 0.08203 0.00000
vt 0.09375 0.08984 0.00000
vt 0.08203 0.08984 0.00000
# 4 texture coords

g leaf001
usemtl base
f 32/49/34 31/48/34 30/47/34 29/46/34 
# 1 polygons

#
# object leaf003
#

v  0.47326 0.46582 0.44800
v  0.41223 0.45518 0.35659
v  0.36241 0.44362 0.39120
v  0.42344 0.45427 0.48260
# 4 vertices

vn -0.20894 0.97759 0.02564
# 1 vertex normals

vt 0.08203 0.08203 0.00000
vt 0.09375 0.08203 0.00000
vt 0.09375 0.08984 0.00000
vt 0.08203 0.08984 0.00000
# 4 texture coords

g leaf003
usemtl base
f 33/50/35 34/51/35 35/52/35 36/53/35 
# 1 polygons

